<?xml version="1.0" encoding="utf-8"?>
<!-- Generator: Adobe Illustrator 20.1.0, SVG Export Plug-In . SVG Version: 6.00 Build 0)  -->
<svg version="1.1" id="圖層_1" xmlns="http://www.w3.org/2000/svg" xmlns:xlink="http://www.w3.org/1999/xlink" x="0px" y="0px"
	 viewBox="0 0 114 54" style="enable-background:new 0 0 114 54;" xml:space="preserve">
<style type="text/css">
	.st0{fill:none;stroke:#DE695C;stroke-width:2.5;stroke-linecap:round;stroke-linejoin:round;stroke-miterlimit:10;}
	.st1{fill:none;stroke:#47808B;stroke-width:1.5;stroke-linecap:round;stroke-linejoin:round;stroke-miterlimit:10;}
	.st2{fill:none;stroke:#DE695C;stroke-width:1.5;stroke-miterlimit:10;}
	.st3{fill:#DE695C;}
	.st4{fill:none;stroke:#DE695C;stroke-width:1.5;stroke-linecap:round;stroke-linejoin:round;stroke-miterlimit:10;}
</style>
<g>
	<g>
		<line class="st0" x1="5.1" y1="5.5" x2="5.1" y2="25.6"/>
		<path class="st0" d="M5.1,5.5h8.7c2.6,0,4.8,2.2,4.8,4.8v0c0,2.6-2.2,4.8-4.8,4.8H5.1"/>
		<path class="st0" d="M5.1,15.2h9.4c2.9,0,5.2,2.3,5.2,5.2v0c0,2.9-2.3,5.2-5.2,5.2H5.1"/>
	</g>
	<g>
		<path class="st0" d="M37.1,10.1v9.9c0,3-2.5,5.5-5.5,5.5h0c-3,0-5.5-2.5-5.5-5.5v-9.9"/>
	</g>
	<g>
		<path class="st0" d="M54.9,20.9c-1.1,2.4-3.1,4-5.5,4c-3.5,0-6.3-3.4-6.3-7.6s2.8-7.6,6.3-7.6c2.4,0,4.5,1.6,5.5,4"/>
		<line class="st0" x1="54.9" y1="2.5" x2="54.9" y2="25.6"/>
	</g>
	<g>
		<path class="st0" d="M72.7,20.9c-1.1,2.4-3.1,4-5.5,4c-3.5,0-6.3-3.4-6.3-7.6s2.8-7.6,6.3-7.6c2.4,0,4.5,1.6,5.5,4"/>
		<line class="st0" x1="72.7" y1="2.5" x2="72.7" y2="25.6"/>
	</g>
	<g>
		<path class="st0" d="M108.7,20.9c-1.1,2.4-3.1,4-5.5,4c-3.5,0-6.3-3.4-6.3-7.6s2.8-7.6,6.3-7.6c2.4,0,4.5,1.6,5.5,4"/>
		<line class="st0" x1="108.7" y1="9.6" x2="108.7" y2="25.6"/>
	</g>
	<g>
		<path class="st0" d="M80.1,3l0.4,22.5v-9.9c0-3,2.5-5.5,5.5-5.5h0c3,0,5.5,2.5,5.5,5.5v9.9"/>
	</g>
	<line class="st1" x1="8.8" y1="48.3" x2="8.8" y2="39.9"/>
	<line class="st1" x1="11.3" y1="43.7" x2="8.8" y2="43.7"/>
	<line class="st1" x1="6.1" y1="49.2" x2="6.1" y2="42.2"/>
	<line class="st1" x1="11.3" y1="47.5" x2="4.8" y2="49.9"/>
	<path class="st1" d="M14.3,34.9c0,0,0.9,9.9-3,16.1"/>
	<path class="st1" d="M21.3,50.8c0,0-2.5-2.9-2.7-14.8v-0.4c0-0.2-0.2-0.4-0.4-0.4h-0.8"/>
	<path class="st1" d="M9.6,39.8H6.9c-0.6,0-1-0.5-1-1v-2.6c0-0.5,0.4-1,1-1h2.6c0.6,0,1,0.5,1,1v2.6C10.6,39.3,10.1,39.8,9.6,39.8z"
		/>
	<line class="st1" x1="38.5" y1="48.3" x2="38.5" y2="39.9"/>
	<line class="st1" x1="41" y1="43.7" x2="38.5" y2="43.7"/>
	<line class="st1" x1="35.8" y1="49.2" x2="35.8" y2="42.2"/>
	<line class="st1" x1="41" y1="47.5" x2="34.5" y2="49.9"/>
	<path class="st1" d="M44,34.9c0,0,0.9,9.9-3,16.1"/>
	<path class="st1" d="M51.1,50.8c0,0-2.5-2.9-2.7-14.8v-0.4c0-0.2-0.2-0.4-0.4-0.4h-0.8"/>
	<path class="st1" d="M39.3,39.8h-2.6c-0.5,0-1-0.5-1-1v-2.6c0-0.5,0.5-1,1-1h2.6c0.5,0,1,0.5,1,1v2.6
		C40.3,39.3,39.8,39.8,39.3,39.8z"/>
	<line class="st1" x1="64.5" y1="37.5" x2="78.7" y2="37.5"/>
	<line class="st1" x1="71.6" y1="34.3" x2="71.6" y2="40.8"/>
	<line class="st1" x1="63.2" y1="41.1" x2="80" y2="41.1"/>
	<line class="st1" x1="71.8" y1="50.5" x2="71.8" y2="41.1"/>
	<line class="st1" x1="78.7" y1="45.5" x2="71.8" y2="45.5"/>
	<path class="st1" d="M67.1,43.3c0,0-0.4,5-3.9,7.8"/>
	<path class="st1" d="M80,50.7c0,0-11.3,1.7-13.7-4"/>
	<circle class="st2" cx="98.8" cy="43.5" r="8"/>
	<g>
		<circle class="st3" cx="95.4" cy="42.7" r="0.9"/>
		<circle class="st3" cx="102.2" cy="42.7" r="0.9"/>
	</g>
	<g>
		<path class="st4" d="M90.6,45.8c-1.3,0-2.2-1.1-2.2-2.3c0-1.3,1.1-2.2,2.3-2.2"/>
		<path class="st4" d="M107,45.8c1.3,0,2.2-1.1,2.2-2.3c0-1.3-1.1-2.2-2.3-2.2"/>
	</g>
	<circle class="st2" cx="98.8" cy="49.2" r="1.7"/>
	<path class="st2" d="M97.4,48.4c-0.4-0.3-0.7-0.7-0.7-1.2c0-0.9,0.9-1.6,2.1-1.6c1.2,0,2.1,0.7,2.1,1.6c0,0.5-0.3,0.9-0.7,1.2"/>
	<path class="st4" d="M99.8,37.7c0,1-0.8,1.8-1.8,1.8c-1,0-1.8-0.8-1.8-1.8s1-2.2,2-2.2"/>
</g>
</svg>
